<svg xmlns="http://www.w3.org/2000/svg" width="34.055" height="35.583" viewBox="0 0 34.055 35.583"><defs><style>.a{fill:#fff;}</style></defs><path class="a" d="M3.629,2A.774.774,0,0,0,3,2.774V5.1a.774.774,0,0,0,.218.532L15.383,18.543v13.64a.78.78,0,0,0,.387.653l7.739,4.644a.775.775,0,0,0,1.161-.653V18.543L36.714,5.749l.024-.024.1-.1a.738.738,0,0,0,.1-.121.365.365,0,0,0,.048-.048.81.81,0,0,0,.073-.314V5.1a.807.807,0,0,0,0-.121v-2.2A.775.775,0,0,0,36.279,2H3.629Zm.919,1.548H35.5V4.805L23.557,17.478H16.5L4.548,4.805ZM16.931,19.026h6.191V35.472l-6.191-3.7Z" transform="translate(-3 -2)"/></svg>