<?xml version="1.0" encoding="UTF-8" standalone="no"?>
<!DOCTYPE svg PUBLIC "-//W3C//DTD SVG 1.1//EN" "http://www.w3.org/Graphics/SVG/1.1/DTD/svg11.dtd">
<svg width="100%" height="100%" viewBox="0 0 2048 2048" version="1.1" xmlns="http://www.w3.org/2000/svg" xmlns:xlink="http://www.w3.org/1999/xlink" xml:space="preserve" xmlns:serif="http://www.serif.com/" style="fill-rule:evenodd;clip-rule:evenodd;stroke-linejoin:round;stroke-miterlimit:2;">
    <g transform="matrix(1,0,0,1,0,39.9543)">
        <g transform="matrix(1.4033,0,0,1.4033,-507.843,-681.362)">
            <g>
                <path d="M1070.26,1605.97C1081.55,1593.04 1093.17,1579.86 1105.03,1566.47C1116.67,1579.62 1128.1,1592.58 1139.21,1605.29C1127.01,1606.9 1114.58,1607.74 1101.96,1607.74C1091.24,1607.74 1080.67,1607.14 1070.26,1605.97ZM903.397,1526.61C927.28,1493.64 953.856,1460.17 981.705,1426.68C1011.99,1461.74 1043.12,1496.77 1073.44,1530.88C1054.55,1552.92 1036.25,1574.47 1018.98,1595.31C975.227,1581.85 935.801,1558.03 903.397,1526.61ZM1189.79,1593.76C1172.9,1573.4 1155.04,1552.38 1136.62,1530.88C1166.93,1496.77 1198.07,1461.74 1228.35,1426.68C1255.21,1458.97 1280.88,1491.26 1304.09,1523.09C1272.22,1555.06 1233.22,1579.54 1189.79,1593.76ZM1105.03,1494.16C1134.98,1459.4 1165.76,1423.77 1195.73,1388.07C1165.75,1353.07 1134.97,1318.27 1105.03,1284.27C1075.08,1318.27 1044.3,1353.07 1014.33,1388.07C1044.3,1423.77 1075.07,1459.4 1105.03,1494.16ZM814.964,1350.68C831.675,1328.44 849.093,1306.76 866.897,1285.65C891.885,1319.22 920.039,1354.03 949.657,1389.16C921.737,1422.57 895.151,1456.27 871.339,1489.98C841.892,1450.18 821.937,1402.56 814.964,1350.68ZM1335.68,1485.7C1312.65,1453.42 1287.14,1421.16 1260.4,1389.16C1290.02,1354.03 1318.17,1319.22 1343.16,1285.65C1359.09,1304.54 1374.72,1323.89 1389.81,1343.7C1383.95,1396.42 1364.71,1444.99 1335.68,1485.7ZM1219.33,1150.29C1194.34,1181.54 1166.18,1214.42 1136.57,1248.33C1166.52,1281.64 1197.26,1315.69 1227.17,1350.18C1256.12,1314.82 1283.7,1279.67 1308.33,1245.53C1278.68,1212.27 1248.55,1180.52 1219.33,1150.29ZM982.886,1350.18C1012.79,1315.69 1043.53,1281.64 1073.49,1248.33C1043.87,1214.42 1015.72,1181.54 990.727,1150.29C961.51,1180.52 931.378,1212.27 901.726,1245.53C926.351,1279.67 953.936,1314.82 982.886,1350.18ZM822.932,1222.45C828.871,1231.74 835.178,1241.19 841.812,1250.77C832.181,1262.1 822.597,1273.7 813.097,1285.57C814.58,1264.98 817.918,1243.77 822.932,1222.45ZM1382.58,1229.49C1386.07,1245.51 1388.61,1261.44 1390.1,1277.07C1382.85,1268.15 1375.56,1259.38 1368.24,1250.77C1373.21,1243.6 1377.99,1236.5 1382.58,1229.49ZM1105.03,1031.37C1080.2,1058.37 1052.26,1087.01 1022.77,1117.29C1047.71,1148.16 1075.68,1180.22 1105.03,1213.14C1134.38,1180.22 1162.35,1148.16 1187.29,1117.29C1157.8,1087.01 1129.86,1058.37 1105.03,1031.37ZM1295.48,1040.8C1323.27,1077.11 1346.21,1119.25 1362.71,1162.86C1353.69,1178.35 1343.66,1194.23 1332.81,1210.4C1302.93,1177.39 1273.07,1146.75 1244.35,1118.07C1264.98,1090.62 1282.45,1064.7 1295.48,1040.8ZM912.071,1036.12C925.319,1061.31 943.723,1088.81 965.704,1118.07C936.99,1146.75 907.126,1177.39 877.248,1210.4C864.897,1192 853.615,1173.98 843.671,1156.48C860.703,1113.26 884.025,1071.72 912.071,1036.12ZM1177.27,942.721C1208.89,956.429 1238.39,978.141 1264.77,1005.17C1251.19,1030.77 1233.11,1057.77 1211.86,1085.9C1182.13,1056.65 1154.24,1029.5 1129.59,1003.95C1148.32,982.406 1164.52,961.996 1177.27,942.721ZM1031.46,940.702C1044.41,960.569 1061.08,981.652 1080.46,1003.95C1055.81,1029.5 1027.92,1056.65 998.195,1085.9C975.824,1056.28 956.954,1027.91 943.171,1001.12C969.864,974.627 999.622,953.594 1031.46,940.702ZM1065.78,930.24C1077.63,927.798 1089.7,926.516 1101.96,926.516C1116.04,926.516 1129.88,928.209 1143.42,931.409C1132.49,946.343 1119.56,961.749 1105.03,977.766C1090.12,961.331 1076.89,945.539 1065.78,930.24Z" style="fill:url(#_Linear1);"/>
                <g transform="matrix(1,0,0,1,0,-12)">
                    <path d="M902.145,605.3L1099,920.737C1063.5,923.14 1026.29,932.621 995.089,952.248L902.145,605.3" style="fill:url(#_Linear2);"/>
                </g>
                <g transform="matrix(1,0,0,1,0,-12)">
                    <path d="M855.346,838.335L971.601,906.366L984.518,956.312C974.777,965.03 965.698,972.424 957.392,978.272L855.346,838.335Z" style="fill:url(#_Linear3);"/>
                </g>
                <g transform="matrix(-1,0,0,1,2204.03,-12)">
                    <path d="M902.145,605.3L1099,920.737C1063.5,923.14 1026.29,932.621 995.089,952.248L902.145,605.3" style="fill:url(#_Linear4);"/>
                </g>
                <g transform="matrix(-1,0,0,1,2204.03,-12)">
                    <path d="M855.346,838.335L971.601,906.366L984.518,956.312C974.777,965.03 965.698,972.424 957.392,978.272L855.346,838.335Z" style="fill:url(#_Linear5);"/>
                </g>
                <g transform="matrix(1,0,0,1,2,-2)">
                    <path d="M1129.2,524.357L1055.62,820.797L1099,894.381L1154.43,811.336L1129.2,524.357Z" style="fill:url(#_Linear6);"/>
                </g>
            </g>
        </g>
        <g transform="matrix(1.3781,0,0,1.3781,-85.7651,-749.965)">
            <g transform="matrix(288,0,0,288,551.685,1910.08)">
                <path d="M0.222,-0.289C0.174,-0.332 0.132,-0.369 0.132,-0.415C0.132,-0.447 0.15,-0.481 0.191,-0.481C0.22,-0.481 0.239,-0.461 0.25,-0.442C0.26,-0.425 0.28,-0.413 0.299,-0.419L0.31,-0.422C0.329,-0.427 0.341,-0.447 0.333,-0.465C0.304,-0.527 0.252,-0.564 0.191,-0.564C0.11,-0.564 0.048,-0.5 0.048,-0.415C0.048,-0.332 0.111,-0.276 0.166,-0.226C0.218,-0.18 0.267,-0.136 0.267,-0.075C0.267,-0.024 0.242,0.003 0.192,0.003C0.15,0.003 0.12,-0.041 0.103,-0.073C0.094,-0.09 0.074,-0.1 0.055,-0.094L0.043,-0.091C0.025,-0.084 0.014,-0.064 0.023,-0.046C0.046,0.002 0.099,0.086 0.192,0.086C0.288,0.086 0.351,0.023 0.351,-0.075C0.351,-0.173 0.282,-0.234 0.222,-0.289Z" style="fill:white;fill-rule:nonzero;"/>
            </g>
            <g transform="matrix(288,0,0,288,658.821,1910.08)">
                <path d="M0.304,-0.555L0.292,-0.555C0.272,-0.555 0.256,-0.539 0.256,-0.52L0.256,-0.308C0.256,-0.288 0.24,-0.272 0.221,-0.272L0.14,-0.272C0.12,-0.272 0.104,-0.288 0.104,-0.308L0.104,-0.52C0.104,-0.539 0.088,-0.555 0.068,-0.555L0.056,-0.555C0.036,-0.555 0.02,-0.539 0.02,-0.52L0.02,0.041C0.02,0.061 0.036,0.077 0.056,0.077L0.068,0.077C0.088,0.077 0.104,0.061 0.104,0.041L0.104,-0.152C0.104,-0.172 0.12,-0.188 0.14,-0.188L0.221,-0.188C0.24,-0.188 0.256,-0.172 0.256,-0.152L0.256,0.041C0.256,0.061 0.272,0.077 0.292,0.077L0.304,0.077C0.324,0.077 0.34,0.061 0.34,0.041L0.34,-0.52C0.34,-0.539 0.324,-0.555 0.304,-0.555Z" style="fill:white;fill-rule:nonzero;"/>
            </g>
            <g transform="matrix(288,0,0,288,762.789,1910.08)">
                <path d="M0.211,-0.564C0.084,-0.564 0.02,-0.455 0.02,-0.24C0.02,-0.023 0.084,0.086 0.211,0.086C0.338,0.086 0.402,-0.023 0.402,-0.24C0.402,-0.455 0.338,-0.564 0.211,-0.564ZM0.211,0.003C0.184,0.003 0.103,0.003 0.103,-0.24C0.103,-0.481 0.181,-0.481 0.211,-0.481C0.24,-0.481 0.318,-0.481 0.318,-0.24C0.318,0.003 0.237,0.003 0.211,0.003Z" style="fill:white;fill-rule:nonzero;"/>
            </g>
            <g transform="matrix(288,0,0,288,884.613,1910.08)">
                <path d="M0.139,-0.472L0.248,-0.472C0.268,-0.472 0.284,-0.488 0.284,-0.508L0.284,-0.52C0.284,-0.539 0.268,-0.555 0.248,-0.555L0.056,-0.555C0.036,-0.555 0.02,-0.539 0.02,-0.52L0.02,0.041C0.02,0.061 0.036,0.077 0.056,0.077L0.248,0.077C0.267,0.077 0.283,0.061 0.283,0.041L0.283,0.029C0.283,0.009 0.267,-0.007 0.248,-0.007L0.139,-0.007C0.12,-0.007 0.104,-0.023 0.104,-0.043L0.104,-0.151C0.104,-0.171 0.12,-0.187 0.139,-0.187L0.188,-0.187C0.208,-0.187 0.224,-0.203 0.224,-0.223L0.224,-0.235C0.224,-0.255 0.208,-0.271 0.188,-0.271L0.139,-0.271C0.12,-0.271 0.104,-0.287 0.104,-0.307L0.104,-0.436C0.104,-0.456 0.12,-0.472 0.139,-0.472Z" style="fill:white;fill-rule:nonzero;"/>
            </g>
            <g transform="matrix(288,0,0,288,972.453,1910.08)">
                <path d="M0.222,-0.289C0.174,-0.332 0.132,-0.369 0.132,-0.415C0.132,-0.447 0.15,-0.481 0.191,-0.481C0.22,-0.481 0.239,-0.461 0.25,-0.442C0.26,-0.425 0.28,-0.413 0.299,-0.419L0.31,-0.422C0.329,-0.427 0.341,-0.447 0.333,-0.465C0.304,-0.527 0.252,-0.564 0.191,-0.564C0.11,-0.564 0.048,-0.5 0.048,-0.415C0.048,-0.332 0.111,-0.276 0.166,-0.226C0.218,-0.18 0.267,-0.136 0.267,-0.075C0.267,-0.024 0.242,0.003 0.192,0.003C0.15,0.003 0.12,-0.041 0.103,-0.073C0.094,-0.09 0.074,-0.1 0.055,-0.094L0.043,-0.091C0.025,-0.084 0.014,-0.064 0.023,-0.046C0.046,0.002 0.099,0.086 0.192,0.086C0.288,0.086 0.351,0.023 0.351,-0.075C0.351,-0.173 0.282,-0.234 0.222,-0.289Z" style="fill:white;fill-rule:nonzero;"/>
            </g>
        </g>
    </g>
    <defs>
        <linearGradient id="_Linear1" x1="0" y1="0" x2="1" y2="0" gradientUnits="userSpaceOnUse" gradientTransform="matrix(4.17127e-14,-681.22,681.22,4.17127e-14,1099,1607.74)"><stop offset="0" style="stop-color:rgb(255,221,0);stop-opacity:1"/><stop offset="0.03" style="stop-color:rgb(255,218,0);stop-opacity:1"/><stop offset="1" style="stop-color:rgb(255,148,0);stop-opacity:1"/></linearGradient>
        <linearGradient id="_Linear2" x1="0" y1="0" x2="1" y2="0" gradientUnits="userSpaceOnUse" gradientTransform="matrix(-30.4526,-242.879,242.879,-30.4526,1000.57,952.248)"><stop offset="0" style="stop-color:rgb(229,255,0);stop-opacity:1"/><stop offset="1" style="stop-color:rgb(109,255,91);stop-opacity:1"/></linearGradient>
        <linearGradient id="_Linear3" x1="0" y1="0" x2="1" y2="0" gradientUnits="userSpaceOnUse" gradientTransform="matrix(5.25602,-69.9681,69.9681,5.25602,959.608,978.272)"><stop offset="0" style="stop-color:rgb(229,255,0);stop-opacity:1"/><stop offset="1" style="stop-color:rgb(109,255,91);stop-opacity:1"/></linearGradient>
        <linearGradient id="_Linear4" x1="0" y1="0" x2="1" y2="0" gradientUnits="userSpaceOnUse" gradientTransform="matrix(-144.975,-140.889,-140.889,144.975,1099,908.303)"><stop offset="0" style="stop-color:rgb(229,255,0);stop-opacity:1"/><stop offset="1" style="stop-color:rgb(109,255,91);stop-opacity:1"/></linearGradient>
        <linearGradient id="_Linear5" x1="0" y1="0" x2="1" y2="0" gradientUnits="userSpaceOnUse" gradientTransform="matrix(-101.45,-73.1424,-73.1424,101.45,984.518,952.248)"><stop offset="0" style="stop-color:rgb(229,255,0);stop-opacity:1"/><stop offset="1" style="stop-color:rgb(109,255,91);stop-opacity:1"/></linearGradient>
        <linearGradient id="_Linear6" x1="0" y1="0" x2="1" y2="0" gradientUnits="userSpaceOnUse" gradientTransform="matrix(3.94201,-185.012,185.012,3.94201,1227.66,894.381)"><stop offset="0" style="stop-color:rgb(229,255,0);stop-opacity:1"/><stop offset="1" style="stop-color:rgb(109,255,91);stop-opacity:1"/></linearGradient>
    </defs>
</svg>
