<?xml version="1.0" encoding="UTF-8" standalone="no"?>
<!DOCTYPE svg PUBLIC "-//W3C//DTD SVG 1.1//EN" "http://www.w3.org/Graphics/SVG/1.1/DTD/svg11.dtd">
<svg width="100%" height="100%" viewBox="0 0 2048 2048" version="1.1" xmlns="http://www.w3.org/2000/svg" xmlns:xlink="http://www.w3.org/1999/xlink" xml:space="preserve" xmlns:serif="http://www.serif.com/" style="fill-rule:evenodd;clip-rule:evenodd;stroke-linejoin:round;stroke-miterlimit:2;">
    <g transform="matrix(1,0,0,0.982254,0,0)">
        <rect x="0" y="0" width="2048" height="2085" style="fill:white;"/>
    </g>
    <g transform="matrix(2.72929,-1.57576,1.57576,2.72929,-47.7656,574.955)">
        <path d="M509.244,285.404L500.873,265.854C500.754,265.572 500.54,265.351 500.387,265.086C499.653,263.294 498.766,261.459 497.469,259.582C485.045,241.534 450.544,232.821 395.018,233.564L385.401,295.926C379.752,296.284 373.958,296.6 367.993,296.882L378.37,229.58L371.339,226.269L362.584,249.684C352.267,273.484 329.21,287.623 305.078,287.623C296.835,287.623 288.455,285.968 280.425,282.486L102.411,202.187C82.708,201.871 59.992,196.026 34.366,181.093C33.965,180.863 33.487,180.871 33.052,180.709C32.506,180.487 32.011,180.171 31.405,180.078C24.792,178.952 17.069,174.258 17.069,164.701C17.069,159.991 13.255,156.168 8.536,156.168C3.826,156.168 0.003,159.991 0.003,164.701C0.003,177.987 8.058,189.217 20.278,194.38C13.127,232.362 2.46,287.385 0.447,293.435C0.327,293.785 0.413,294.152 0.345,294.519C0.239,295.055 0,295.575 0,296.138L0,355.786C0,358.047 0.905,360.223 2.5,361.819C4.104,363.423 6.272,364.319 8.533,364.319C8.533,364.319 213.342,364.319 347.699,364.097C433.493,363.96 475.989,346.313 496.52,331.534C510.37,321.568 515.669,302.76 509.244,285.404ZM59.733,227.786C64.452,227.786 68.266,231.609 68.266,236.319C68.266,241.038 64.452,244.852 59.733,244.852C55.023,244.852 51.2,241.038 51.2,236.319C51.2,231.609 55.023,227.786 59.733,227.786ZM51.2,261.92C55.919,261.92 59.733,265.743 59.733,270.453C59.733,275.172 55.919,278.986 51.2,278.986C46.49,278.986 42.667,275.172 42.667,270.453C42.667,265.743 46.49,261.92 51.2,261.92ZM486.554,317.685C471.407,328.591 433.221,346.895 347.665,347.031C229.615,347.227 57.148,347.253 17.067,347.253L17.067,305.32C48.564,307.607 131.38,313.128 219.947,315.142L220.22,315.142C238.942,315.569 257.912,315.833 276.711,315.876L277.914,315.876C279.373,315.884 280.832,315.893 282.292,315.893C285.236,315.893 288.146,315.859 291.081,315.85C293.428,315.841 295.774,315.841 298.112,315.824C301.978,315.79 305.801,315.747 309.632,315.696C312.09,315.662 314.556,315.636 316.996,315.594C320.682,315.534 324.318,315.449 327.961,315.364C330.478,315.304 332.996,315.253 335.487,315.185C338.977,315.091 342.416,314.963 345.864,314.844C348.45,314.759 351.044,314.673 353.604,314.571C356.864,314.443 360.064,314.281 363.272,314.127C365.909,314.007 368.546,313.88 371.131,313.743C374.194,313.572 377.181,313.385 380.185,313.188C382.805,313.026 385.442,312.864 388.01,312.676C390.886,312.471 393.676,312.241 396.475,312.019C399.044,311.806 401.621,311.601 404.121,311.371C406.792,311.132 409.369,310.859 411.963,310.594C414.463,310.338 416.972,310.082 419.404,309.809C421.87,309.527 424.242,309.212 426.623,308.913C429.012,308.606 431.402,308.299 433.697,307.966C435.984,307.642 438.168,307.283 440.37,306.933C442.589,306.575 444.807,306.225 446.932,305.841C449.031,305.466 451.011,305.064 453.016,304.663C455.055,304.253 457.104,303.844 459.041,303.409C460.927,302.982 462.693,302.53 464.485,302.078C466.32,301.617 468.154,301.156 469.887,300.661C471.559,300.183 473.104,299.671 474.666,299.168C476.279,298.647 477.892,298.127 479.376,297.581C480.827,297.043 482.141,296.48 483.472,295.917C484.829,295.337 486.194,294.756 487.423,294.151C488.635,293.554 489.71,292.922 490.785,292.299C491.527,291.864 492.415,291.471 493.098,291.019L493.397,291.719C497.015,301.506 494.199,312.181 486.554,317.685Z" style="fill-opacity:0.16;fill-rule:nonzero;"/>
        <path d="M346.762,243.293L355.85,218.982L348.324,215.441L323.057,257.562C321.453,260.224 318.628,261.701 315.727,261.701C314.234,261.701 312.723,261.308 311.349,260.489C307.304,258.057 305.999,252.818 308.422,248.781L332.802,208.137L313.721,199.16L288.923,240.496C287.319,243.158 284.494,244.635 281.593,244.635C280.1,244.635 278.589,244.242 277.215,243.423C273.17,240.991 271.865,235.751 274.288,231.715L298.198,191.856L279.117,182.879L254.789,223.429C253.185,226.091 250.36,227.568 247.459,227.568C245.966,227.568 244.455,227.175 243.081,226.356C239.036,223.924 237.731,218.685 240.154,214.648L263.595,175.574L244.514,166.588L220.655,206.362C219.051,209.024 216.226,210.501 213.325,210.501C211.832,210.501 210.321,210.108 208.947,209.289C204.902,206.857 203.597,201.618 206.02,197.581L228.992,159.283L205.961,148.446C202.053,146.611 197.428,147.985 195.115,151.603C193.716,153.813 172.792,185.736 133.965,197.692L287.318,266.872C310.112,276.752 336.821,266.197 346.762,243.293Z" style="fill-opacity:0.16;fill-rule:nonzero;"/>
    </g>
</svg>
