<?xml version="1.0" encoding="UTF-8" standalone="no"?>
<!DOCTYPE svg PUBLIC "-//W3C//DTD SVG 1.1//EN" "http://www.w3.org/Graphics/SVG/1.1/DTD/svg11.dtd">
<svg width="100%" height="100%" viewBox="0 0 2048 1024" version="1.1" xmlns="http://www.w3.org/2000/svg" xmlns:xlink="http://www.w3.org/1999/xlink" xml:space="preserve" xmlns:serif="http://www.serif.com/" style="fill-rule:evenodd;clip-rule:evenodd;stroke-linejoin:round;stroke-miterlimit:2;">
    <rect x="0" y="0" width="2048" height="1024" style="fill:url(#_Linear1);"/>
    <g transform="matrix(0.883789,0,0,0.883789,119,51.574)">
        <g transform="matrix(0.504776,0,0,0.504776,-410.432,230.39)">
            <g>
                <g>
                    <path d="M1070.26,1605.97C1081.55,1593.04 1093.17,1579.86 1105.03,1566.47C1116.67,1579.62 1128.1,1592.58 1139.21,1605.29C1127.01,1606.9 1114.58,1607.74 1101.96,1607.74C1091.24,1607.74 1080.67,1607.14 1070.26,1605.97ZM903.397,1526.61C927.28,1493.64 953.856,1460.17 981.705,1426.68C1011.99,1461.74 1043.12,1496.77 1073.44,1530.88C1054.55,1552.92 1036.25,1574.47 1018.98,1595.31C975.227,1581.85 935.801,1558.03 903.397,1526.61ZM1189.79,1593.76C1172.9,1573.4 1155.04,1552.38 1136.62,1530.88C1166.93,1496.77 1198.07,1461.74 1228.35,1426.68C1255.21,1458.97 1280.88,1491.26 1304.09,1523.09C1272.22,1555.06 1233.22,1579.54 1189.79,1593.76ZM1105.03,1494.16C1134.98,1459.4 1165.76,1423.77 1195.73,1388.07C1165.75,1353.07 1134.97,1318.27 1105.03,1284.27C1075.08,1318.27 1044.3,1353.07 1014.33,1388.07C1044.3,1423.77 1075.07,1459.4 1105.03,1494.16ZM814.964,1350.68C831.675,1328.44 849.093,1306.76 866.897,1285.65C891.885,1319.22 920.039,1354.03 949.657,1389.16C921.737,1422.57 895.151,1456.27 871.339,1489.98C841.892,1450.18 821.937,1402.56 814.964,1350.68ZM1335.68,1485.7C1312.65,1453.42 1287.14,1421.16 1260.4,1389.16C1290.02,1354.03 1318.17,1319.22 1343.16,1285.65C1359.09,1304.54 1374.72,1323.89 1389.81,1343.7C1383.95,1396.42 1364.71,1444.99 1335.68,1485.7ZM1219.33,1150.29C1194.34,1181.54 1166.18,1214.42 1136.57,1248.33C1166.52,1281.64 1197.26,1315.69 1227.17,1350.18C1256.12,1314.82 1283.7,1279.67 1308.33,1245.53C1278.68,1212.27 1248.55,1180.52 1219.33,1150.29ZM982.886,1350.18C1012.79,1315.69 1043.53,1281.64 1073.49,1248.33C1043.87,1214.42 1015.72,1181.54 990.727,1150.29C961.51,1180.52 931.378,1212.27 901.726,1245.53C926.351,1279.67 953.936,1314.82 982.886,1350.18ZM822.932,1222.45C828.871,1231.74 835.178,1241.19 841.812,1250.77C832.181,1262.1 822.597,1273.7 813.097,1285.57C814.58,1264.98 817.918,1243.77 822.932,1222.45ZM1382.58,1229.49C1386.07,1245.51 1388.61,1261.44 1390.1,1277.07C1382.85,1268.15 1375.56,1259.38 1368.24,1250.77C1373.21,1243.6 1377.99,1236.5 1382.58,1229.49ZM1105.03,1031.37C1080.2,1058.37 1052.26,1087.01 1022.77,1117.29C1047.71,1148.16 1075.68,1180.22 1105.03,1213.14C1134.38,1180.22 1162.35,1148.16 1187.29,1117.29C1157.8,1087.01 1129.86,1058.37 1105.03,1031.37ZM1295.48,1040.8C1323.27,1077.11 1346.21,1119.25 1362.71,1162.86C1353.69,1178.35 1343.66,1194.23 1332.81,1210.4C1302.93,1177.39 1273.07,1146.75 1244.35,1118.07C1264.98,1090.62 1282.45,1064.7 1295.48,1040.8ZM912.071,1036.12C925.319,1061.31 943.723,1088.81 965.704,1118.07C936.99,1146.75 907.126,1177.39 877.248,1210.4C864.897,1192 853.615,1173.98 843.671,1156.48C860.703,1113.26 884.025,1071.72 912.071,1036.12ZM1177.27,942.721C1208.89,956.429 1238.39,978.141 1264.77,1005.17C1251.19,1030.77 1233.11,1057.77 1211.86,1085.9C1182.13,1056.65 1154.24,1029.5 1129.59,1003.95C1148.32,982.406 1164.52,961.996 1177.27,942.721ZM1031.46,940.702C1044.41,960.569 1061.08,981.652 1080.46,1003.95C1055.81,1029.5 1027.92,1056.65 998.195,1085.9C975.824,1056.28 956.954,1027.91 943.171,1001.12C969.864,974.627 999.622,953.594 1031.46,940.702ZM1065.78,930.24C1077.63,927.798 1089.7,926.516 1101.96,926.516C1116.04,926.516 1129.88,928.209 1143.42,931.409C1132.49,946.343 1119.56,961.749 1105.03,977.766C1090.12,961.331 1076.89,945.539 1065.78,930.24Z" style="fill:rgb(15,15,0);fill-opacity:0.04;"/>
                    <g transform="matrix(1,0,0,1,0,-12)">
                        <path d="M902.145,605.3L1099,920.737C1063.5,923.14 1026.29,932.621 995.089,952.248L902.145,605.3" style="fill:rgb(15,15,0);fill-opacity:0.04;"/>
                    </g>
                    <g transform="matrix(1,0,0,1,0,-12)">
                        <path d="M855.346,838.335L971.601,906.366L984.518,956.312C974.777,965.03 965.698,972.424 957.392,978.272L855.346,838.335Z" style="fill:rgb(15,15,0);fill-opacity:0.04;"/>
                    </g>
                    <g transform="matrix(-1,0,0,1,2204.03,-12)">
                        <path d="M902.145,605.3L1099,920.737C1063.5,923.14 1026.29,932.621 995.089,952.248L902.145,605.3" style="fill:rgb(15,15,0);fill-opacity:0.04;"/>
                    </g>
                    <g transform="matrix(-1,0,0,1,2204.03,-12)">
                        <path d="M855.346,838.335L971.601,906.366L984.518,956.312C974.777,965.03 965.698,972.424 957.392,978.272L855.346,838.335Z" style="fill:rgb(15,15,0);fill-opacity:0.04;"/>
                    </g>
                    <g transform="matrix(1,0,0,1,2,-2)">
                        <path d="M1129.2,524.357L1055.62,820.797L1099,894.381L1154.43,811.336L1129.2,524.357Z" style="fill:rgb(15,15,0);fill-opacity:0.04;"/>
                    </g>
                </g>
            </g>
        </g>
        <g transform="matrix(0.504776,0,0,0.504776,-117.641,-263.673)">
            <g>
                <g>
                    <path d="M1070.26,1605.97C1081.55,1593.04 1093.17,1579.86 1105.03,1566.47C1116.67,1579.62 1128.1,1592.58 1139.21,1605.29C1127.01,1606.9 1114.58,1607.74 1101.96,1607.74C1091.24,1607.74 1080.67,1607.14 1070.26,1605.97ZM903.397,1526.61C927.28,1493.64 953.856,1460.17 981.705,1426.68C1011.99,1461.74 1043.12,1496.77 1073.44,1530.88C1054.55,1552.92 1036.25,1574.47 1018.98,1595.31C975.227,1581.85 935.801,1558.03 903.397,1526.61ZM1189.79,1593.76C1172.9,1573.4 1155.04,1552.38 1136.62,1530.88C1166.93,1496.77 1198.07,1461.74 1228.35,1426.68C1255.21,1458.97 1280.88,1491.26 1304.09,1523.09C1272.22,1555.06 1233.22,1579.54 1189.79,1593.76ZM1105.03,1494.16C1134.98,1459.4 1165.76,1423.77 1195.73,1388.07C1165.75,1353.07 1134.97,1318.27 1105.03,1284.27C1075.08,1318.27 1044.3,1353.07 1014.33,1388.07C1044.3,1423.77 1075.07,1459.4 1105.03,1494.16ZM814.964,1350.68C831.675,1328.44 849.093,1306.76 866.897,1285.65C891.885,1319.22 920.039,1354.03 949.657,1389.16C921.737,1422.57 895.151,1456.27 871.339,1489.98C841.892,1450.18 821.937,1402.56 814.964,1350.68ZM1335.68,1485.7C1312.65,1453.42 1287.14,1421.16 1260.4,1389.16C1290.02,1354.03 1318.17,1319.22 1343.16,1285.65C1359.09,1304.54 1374.72,1323.89 1389.81,1343.7C1383.95,1396.42 1364.71,1444.99 1335.68,1485.7ZM1219.33,1150.29C1194.34,1181.54 1166.18,1214.42 1136.57,1248.33C1166.52,1281.64 1197.26,1315.69 1227.17,1350.18C1256.12,1314.82 1283.7,1279.67 1308.33,1245.53C1278.68,1212.27 1248.55,1180.52 1219.33,1150.29ZM982.886,1350.18C1012.79,1315.69 1043.53,1281.64 1073.49,1248.33C1043.87,1214.42 1015.72,1181.54 990.727,1150.29C961.51,1180.52 931.378,1212.27 901.726,1245.53C926.351,1279.67 953.936,1314.82 982.886,1350.18ZM822.932,1222.45C828.871,1231.74 835.178,1241.19 841.812,1250.77C832.181,1262.1 822.597,1273.7 813.097,1285.57C814.58,1264.98 817.918,1243.77 822.932,1222.45ZM1382.58,1229.49C1386.07,1245.51 1388.61,1261.44 1390.1,1277.07C1382.85,1268.15 1375.56,1259.38 1368.24,1250.77C1373.21,1243.6 1377.99,1236.5 1382.58,1229.49ZM1105.03,1031.37C1080.2,1058.37 1052.26,1087.01 1022.77,1117.29C1047.71,1148.16 1075.68,1180.22 1105.03,1213.14C1134.38,1180.22 1162.35,1148.16 1187.29,1117.29C1157.8,1087.01 1129.86,1058.37 1105.03,1031.37ZM1295.48,1040.8C1323.27,1077.11 1346.21,1119.25 1362.71,1162.86C1353.69,1178.35 1343.66,1194.23 1332.81,1210.4C1302.93,1177.39 1273.07,1146.75 1244.35,1118.07C1264.98,1090.62 1282.45,1064.7 1295.48,1040.8ZM912.071,1036.12C925.319,1061.31 943.723,1088.81 965.704,1118.07C936.99,1146.75 907.126,1177.39 877.248,1210.4C864.897,1192 853.615,1173.98 843.671,1156.48C860.703,1113.26 884.025,1071.72 912.071,1036.12ZM1177.27,942.721C1208.89,956.429 1238.39,978.141 1264.77,1005.17C1251.19,1030.77 1233.11,1057.77 1211.86,1085.9C1182.13,1056.65 1154.24,1029.5 1129.59,1003.95C1148.32,982.406 1164.52,961.996 1177.27,942.721ZM1031.46,940.702C1044.41,960.569 1061.08,981.652 1080.46,1003.95C1055.81,1029.5 1027.92,1056.65 998.195,1085.9C975.824,1056.28 956.954,1027.91 943.171,1001.12C969.864,974.627 999.622,953.594 1031.46,940.702ZM1065.78,930.24C1077.63,927.798 1089.7,926.516 1101.96,926.516C1116.04,926.516 1129.88,928.209 1143.42,931.409C1132.49,946.343 1119.56,961.749 1105.03,977.766C1090.12,961.331 1076.89,945.539 1065.78,930.24Z" style="fill:rgb(15,15,0);fill-opacity:0.04;"/>
                    <g transform="matrix(1,0,0,1,0,-12)">
                        <path d="M902.145,605.3L1099,920.737C1063.5,923.14 1026.29,932.621 995.089,952.248L902.145,605.3" style="fill:rgb(15,15,0);fill-opacity:0.04;"/>
                    </g>
                    <g transform="matrix(1,0,0,1,0,-12)">
                        <path d="M855.346,838.335L971.601,906.366L984.518,956.312C974.777,965.03 965.698,972.424 957.392,978.272L855.346,838.335Z" style="fill:rgb(15,15,0);fill-opacity:0.04;"/>
                    </g>
                    <g transform="matrix(-1,0,0,1,2204.03,-12)">
                        <path d="M902.145,605.3L1099,920.737C1063.5,923.14 1026.29,932.621 995.089,952.248L902.145,605.3" style="fill:rgb(15,15,0);fill-opacity:0.04;"/>
                    </g>
                    <g transform="matrix(-1,0,0,1,2204.03,-12)">
                        <path d="M855.346,838.335L971.601,906.366L984.518,956.312C974.777,965.03 965.698,972.424 957.392,978.272L855.346,838.335Z" style="fill:rgb(15,15,0);fill-opacity:0.04;"/>
                    </g>
                    <g transform="matrix(1,0,0,1,2,-2)">
                        <path d="M1129.2,524.357L1055.62,820.797L1099,894.381L1154.43,811.336L1129.2,524.357Z" style="fill:rgb(15,15,0);fill-opacity:0.04;"/>
                    </g>
                </g>
            </g>
        </g>
        <g transform="matrix(0.504776,0,0,0.504776,175.149,230.39)">
            <g>
                <g>
                    <path d="M1070.26,1605.97C1081.55,1593.04 1093.17,1579.86 1105.03,1566.47C1116.67,1579.62 1128.1,1592.58 1139.21,1605.29C1127.01,1606.9 1114.58,1607.74 1101.96,1607.74C1091.24,1607.74 1080.67,1607.14 1070.26,1605.97ZM903.397,1526.61C927.28,1493.64 953.856,1460.17 981.705,1426.68C1011.99,1461.74 1043.12,1496.77 1073.44,1530.88C1054.55,1552.92 1036.25,1574.47 1018.98,1595.31C975.227,1581.85 935.801,1558.03 903.397,1526.61ZM1189.79,1593.76C1172.9,1573.4 1155.04,1552.38 1136.62,1530.88C1166.93,1496.77 1198.07,1461.74 1228.35,1426.68C1255.21,1458.97 1280.88,1491.26 1304.09,1523.09C1272.22,1555.06 1233.22,1579.54 1189.79,1593.76ZM1105.03,1494.16C1134.98,1459.4 1165.76,1423.77 1195.73,1388.07C1165.75,1353.07 1134.97,1318.27 1105.03,1284.27C1075.08,1318.27 1044.3,1353.07 1014.33,1388.07C1044.3,1423.77 1075.07,1459.4 1105.03,1494.16ZM814.964,1350.68C831.675,1328.44 849.093,1306.76 866.897,1285.65C891.885,1319.22 920.039,1354.03 949.657,1389.16C921.737,1422.57 895.151,1456.27 871.339,1489.98C841.892,1450.18 821.937,1402.56 814.964,1350.68ZM1335.68,1485.7C1312.65,1453.42 1287.14,1421.16 1260.4,1389.16C1290.02,1354.03 1318.17,1319.22 1343.16,1285.65C1359.09,1304.54 1374.72,1323.89 1389.81,1343.7C1383.95,1396.42 1364.71,1444.99 1335.68,1485.7ZM1219.33,1150.29C1194.34,1181.54 1166.18,1214.42 1136.57,1248.33C1166.52,1281.64 1197.26,1315.69 1227.17,1350.18C1256.12,1314.82 1283.7,1279.67 1308.33,1245.53C1278.68,1212.27 1248.55,1180.52 1219.33,1150.29ZM982.886,1350.18C1012.79,1315.69 1043.53,1281.64 1073.49,1248.33C1043.87,1214.42 1015.72,1181.54 990.727,1150.29C961.51,1180.52 931.378,1212.27 901.726,1245.53C926.351,1279.67 953.936,1314.82 982.886,1350.18ZM822.932,1222.45C828.871,1231.74 835.178,1241.19 841.812,1250.77C832.181,1262.1 822.597,1273.7 813.097,1285.57C814.58,1264.98 817.918,1243.77 822.932,1222.45ZM1382.58,1229.49C1386.07,1245.51 1388.61,1261.44 1390.1,1277.07C1382.85,1268.15 1375.56,1259.38 1368.24,1250.77C1373.21,1243.6 1377.99,1236.5 1382.58,1229.49ZM1105.03,1031.37C1080.2,1058.37 1052.26,1087.01 1022.77,1117.29C1047.71,1148.16 1075.68,1180.22 1105.03,1213.14C1134.38,1180.22 1162.35,1148.16 1187.29,1117.29C1157.8,1087.01 1129.86,1058.37 1105.03,1031.37ZM1295.48,1040.8C1323.27,1077.11 1346.21,1119.25 1362.71,1162.86C1353.69,1178.35 1343.66,1194.23 1332.81,1210.4C1302.93,1177.39 1273.07,1146.75 1244.35,1118.07C1264.98,1090.62 1282.45,1064.7 1295.48,1040.8ZM912.071,1036.12C925.319,1061.31 943.723,1088.81 965.704,1118.07C936.99,1146.75 907.126,1177.39 877.248,1210.4C864.897,1192 853.615,1173.98 843.671,1156.48C860.703,1113.26 884.025,1071.72 912.071,1036.12ZM1177.27,942.721C1208.89,956.429 1238.39,978.141 1264.77,1005.17C1251.19,1030.77 1233.11,1057.77 1211.86,1085.9C1182.13,1056.65 1154.24,1029.5 1129.59,1003.95C1148.32,982.406 1164.52,961.996 1177.27,942.721ZM1031.46,940.702C1044.41,960.569 1061.08,981.652 1080.46,1003.95C1055.81,1029.5 1027.92,1056.65 998.195,1085.9C975.824,1056.28 956.954,1027.91 943.171,1001.12C969.864,974.627 999.622,953.594 1031.46,940.702ZM1065.78,930.24C1077.63,927.798 1089.7,926.516 1101.96,926.516C1116.04,926.516 1129.88,928.209 1143.42,931.409C1132.49,946.343 1119.56,961.749 1105.03,977.766C1090.12,961.331 1076.89,945.539 1065.78,930.24Z" style="fill:rgb(15,15,0);fill-opacity:0.04;"/>
                    <g transform="matrix(1,0,0,1,0,-12)">
                        <path d="M902.145,605.3L1099,920.737C1063.5,923.14 1026.29,932.621 995.089,952.248L902.145,605.3" style="fill:rgb(15,15,0);fill-opacity:0.04;"/>
                    </g>
                    <g transform="matrix(1,0,0,1,0,-12)">
                        <path d="M855.346,838.335L971.601,906.366L984.518,956.312C974.777,965.03 965.698,972.424 957.392,978.272L855.346,838.335Z" style="fill:rgb(15,15,0);fill-opacity:0.04;"/>
                    </g>
                    <g transform="matrix(-1,0,0,1,2204.03,-12)">
                        <path d="M902.145,605.3L1099,920.737C1063.5,923.14 1026.29,932.621 995.089,952.248L902.145,605.3" style="fill:rgb(15,15,0);fill-opacity:0.04;"/>
                    </g>
                    <g transform="matrix(-1,0,0,1,2204.03,-12)">
                        <path d="M855.346,838.335L971.601,906.366L984.518,956.312C974.777,965.03 965.698,972.424 957.392,978.272L855.346,838.335Z" style="fill:rgb(15,15,0);fill-opacity:0.04;"/>
                    </g>
                    <g transform="matrix(1,0,0,1,2,-2)">
                        <path d="M1129.2,524.357L1055.62,820.797L1099,894.381L1154.43,811.336L1129.2,524.357Z" style="fill:rgb(15,15,0);fill-opacity:0.04;"/>
                    </g>
                </g>
            </g>
        </g>
        <g transform="matrix(0.504776,0,0,0.504776,467.939,-263.673)">
            <g>
                <g>
                    <path d="M1070.26,1605.97C1081.55,1593.04 1093.17,1579.86 1105.03,1566.47C1116.67,1579.62 1128.1,1592.58 1139.21,1605.29C1127.01,1606.9 1114.58,1607.74 1101.96,1607.74C1091.24,1607.74 1080.67,1607.14 1070.26,1605.97ZM903.397,1526.61C927.28,1493.64 953.856,1460.17 981.705,1426.68C1011.99,1461.74 1043.12,1496.77 1073.44,1530.88C1054.55,1552.92 1036.25,1574.47 1018.98,1595.31C975.227,1581.85 935.801,1558.03 903.397,1526.61ZM1189.79,1593.76C1172.9,1573.4 1155.04,1552.38 1136.62,1530.88C1166.93,1496.77 1198.07,1461.74 1228.35,1426.68C1255.21,1458.97 1280.88,1491.26 1304.09,1523.09C1272.22,1555.06 1233.22,1579.54 1189.79,1593.76ZM1105.03,1494.16C1134.98,1459.4 1165.76,1423.77 1195.73,1388.07C1165.75,1353.07 1134.97,1318.27 1105.03,1284.27C1075.08,1318.27 1044.3,1353.07 1014.33,1388.07C1044.3,1423.77 1075.07,1459.4 1105.03,1494.16ZM814.964,1350.68C831.675,1328.44 849.093,1306.76 866.897,1285.65C891.885,1319.22 920.039,1354.03 949.657,1389.16C921.737,1422.57 895.151,1456.27 871.339,1489.98C841.892,1450.18 821.937,1402.56 814.964,1350.68ZM1335.68,1485.7C1312.65,1453.42 1287.14,1421.16 1260.4,1389.16C1290.02,1354.03 1318.17,1319.22 1343.16,1285.65C1359.09,1304.54 1374.72,1323.89 1389.81,1343.7C1383.95,1396.42 1364.71,1444.99 1335.68,1485.7ZM1219.33,1150.29C1194.34,1181.54 1166.18,1214.42 1136.57,1248.33C1166.52,1281.64 1197.26,1315.69 1227.17,1350.18C1256.12,1314.82 1283.7,1279.67 1308.33,1245.53C1278.68,1212.27 1248.55,1180.52 1219.33,1150.29ZM982.886,1350.18C1012.79,1315.69 1043.53,1281.64 1073.49,1248.33C1043.87,1214.42 1015.72,1181.54 990.727,1150.29C961.51,1180.52 931.378,1212.27 901.726,1245.53C926.351,1279.67 953.936,1314.82 982.886,1350.18ZM822.932,1222.45C828.871,1231.74 835.178,1241.19 841.812,1250.77C832.181,1262.1 822.597,1273.7 813.097,1285.57C814.58,1264.98 817.918,1243.77 822.932,1222.45ZM1382.58,1229.49C1386.07,1245.51 1388.61,1261.44 1390.1,1277.07C1382.85,1268.15 1375.56,1259.38 1368.24,1250.77C1373.21,1243.6 1377.99,1236.5 1382.58,1229.49ZM1105.03,1031.37C1080.2,1058.37 1052.26,1087.01 1022.77,1117.29C1047.71,1148.16 1075.68,1180.22 1105.03,1213.14C1134.38,1180.22 1162.35,1148.16 1187.29,1117.29C1157.8,1087.01 1129.86,1058.37 1105.03,1031.37ZM1295.48,1040.8C1323.27,1077.11 1346.21,1119.25 1362.71,1162.86C1353.69,1178.35 1343.66,1194.23 1332.81,1210.4C1302.93,1177.39 1273.07,1146.75 1244.35,1118.07C1264.98,1090.62 1282.45,1064.7 1295.48,1040.8ZM912.071,1036.12C925.319,1061.31 943.723,1088.81 965.704,1118.07C936.99,1146.75 907.126,1177.39 877.248,1210.4C864.897,1192 853.615,1173.98 843.671,1156.48C860.703,1113.26 884.025,1071.72 912.071,1036.12ZM1177.27,942.721C1208.89,956.429 1238.39,978.141 1264.77,1005.17C1251.19,1030.77 1233.11,1057.77 1211.86,1085.9C1182.13,1056.65 1154.24,1029.5 1129.59,1003.95C1148.32,982.406 1164.52,961.996 1177.27,942.721ZM1031.46,940.702C1044.41,960.569 1061.08,981.652 1080.46,1003.95C1055.81,1029.5 1027.92,1056.65 998.195,1085.9C975.824,1056.28 956.954,1027.91 943.171,1001.12C969.864,974.627 999.622,953.594 1031.46,940.702ZM1065.78,930.24C1077.63,927.798 1089.7,926.516 1101.96,926.516C1116.04,926.516 1129.88,928.209 1143.42,931.409C1132.49,946.343 1119.56,961.749 1105.03,977.766C1090.12,961.331 1076.89,945.539 1065.78,930.24Z" style="fill:rgb(15,15,0);fill-opacity:0.04;"/>
                    <g transform="matrix(1,0,0,1,0,-12)">
                        <path d="M902.145,605.3L1099,920.737C1063.5,923.14 1026.29,932.621 995.089,952.248L902.145,605.3" style="fill:rgb(15,15,0);fill-opacity:0.04;"/>
                    </g>
                    <g transform="matrix(1,0,0,1,0,-12)">
                        <path d="M855.346,838.335L971.601,906.366L984.518,956.312C974.777,965.03 965.698,972.424 957.392,978.272L855.346,838.335Z" style="fill:rgb(15,15,0);fill-opacity:0.04;"/>
                    </g>
                    <g transform="matrix(-1,0,0,1,2204.03,-12)">
                        <path d="M902.145,605.3L1099,920.737C1063.5,923.14 1026.29,932.621 995.089,952.248L902.145,605.3" style="fill:rgb(15,15,0);fill-opacity:0.04;"/>
                    </g>
                    <g transform="matrix(-1,0,0,1,2204.03,-12)">
                        <path d="M855.346,838.335L971.601,906.366L984.518,956.312C974.777,965.03 965.698,972.424 957.392,978.272L855.346,838.335Z" style="fill:rgb(15,15,0);fill-opacity:0.04;"/>
                    </g>
                    <g transform="matrix(1,0,0,1,2,-2)">
                        <path d="M1129.2,524.357L1055.62,820.797L1099,894.381L1154.43,811.336L1129.2,524.357Z" style="fill:rgb(15,15,0);fill-opacity:0.04;"/>
                    </g>
                </g>
            </g>
        </g>
        <g transform="matrix(0.504776,0,0,0.504776,760.73,230.39)">
            <g>
                <g>
                    <path d="M1070.26,1605.97C1081.55,1593.04 1093.17,1579.86 1105.03,1566.47C1116.67,1579.62 1128.1,1592.58 1139.21,1605.29C1127.01,1606.9 1114.58,1607.74 1101.96,1607.74C1091.24,1607.74 1080.67,1607.14 1070.26,1605.97ZM903.397,1526.61C927.28,1493.64 953.856,1460.17 981.705,1426.68C1011.99,1461.74 1043.12,1496.77 1073.44,1530.88C1054.55,1552.92 1036.25,1574.47 1018.98,1595.31C975.227,1581.85 935.801,1558.03 903.397,1526.61ZM1189.79,1593.76C1172.9,1573.4 1155.04,1552.38 1136.62,1530.88C1166.93,1496.77 1198.07,1461.74 1228.35,1426.68C1255.21,1458.97 1280.88,1491.26 1304.09,1523.09C1272.22,1555.06 1233.22,1579.54 1189.79,1593.76ZM1105.03,1494.16C1134.98,1459.4 1165.76,1423.77 1195.73,1388.07C1165.75,1353.07 1134.97,1318.27 1105.03,1284.27C1075.08,1318.27 1044.3,1353.07 1014.33,1388.07C1044.3,1423.77 1075.07,1459.4 1105.03,1494.16ZM814.964,1350.68C831.675,1328.44 849.093,1306.76 866.897,1285.65C891.885,1319.22 920.039,1354.03 949.657,1389.16C921.737,1422.57 895.151,1456.27 871.339,1489.98C841.892,1450.18 821.937,1402.56 814.964,1350.68ZM1335.68,1485.7C1312.65,1453.42 1287.14,1421.16 1260.4,1389.16C1290.02,1354.03 1318.17,1319.22 1343.16,1285.65C1359.09,1304.54 1374.72,1323.89 1389.81,1343.7C1383.95,1396.42 1364.71,1444.99 1335.68,1485.7ZM1219.33,1150.29C1194.34,1181.54 1166.18,1214.42 1136.57,1248.33C1166.52,1281.64 1197.26,1315.69 1227.17,1350.18C1256.12,1314.82 1283.7,1279.67 1308.33,1245.53C1278.68,1212.27 1248.55,1180.52 1219.33,1150.29ZM982.886,1350.18C1012.79,1315.69 1043.53,1281.64 1073.49,1248.33C1043.87,1214.42 1015.72,1181.54 990.727,1150.29C961.51,1180.52 931.378,1212.27 901.726,1245.53C926.351,1279.67 953.936,1314.82 982.886,1350.18ZM822.932,1222.45C828.871,1231.74 835.178,1241.19 841.812,1250.77C832.181,1262.1 822.597,1273.7 813.097,1285.57C814.58,1264.98 817.918,1243.77 822.932,1222.45ZM1382.58,1229.49C1386.07,1245.51 1388.61,1261.44 1390.1,1277.07C1382.85,1268.15 1375.56,1259.38 1368.24,1250.77C1373.21,1243.6 1377.99,1236.5 1382.58,1229.49ZM1105.03,1031.37C1080.2,1058.37 1052.26,1087.01 1022.77,1117.29C1047.71,1148.16 1075.68,1180.22 1105.03,1213.14C1134.38,1180.22 1162.35,1148.16 1187.29,1117.29C1157.8,1087.01 1129.86,1058.37 1105.03,1031.37ZM1295.48,1040.8C1323.27,1077.11 1346.21,1119.25 1362.71,1162.86C1353.69,1178.35 1343.66,1194.23 1332.81,1210.4C1302.93,1177.39 1273.07,1146.75 1244.35,1118.07C1264.98,1090.62 1282.45,1064.7 1295.48,1040.8ZM912.071,1036.12C925.319,1061.31 943.723,1088.81 965.704,1118.07C936.99,1146.75 907.126,1177.39 877.248,1210.4C864.897,1192 853.615,1173.98 843.671,1156.48C860.703,1113.26 884.025,1071.72 912.071,1036.12ZM1177.27,942.721C1208.89,956.429 1238.39,978.141 1264.77,1005.17C1251.19,1030.77 1233.11,1057.77 1211.86,1085.9C1182.13,1056.65 1154.24,1029.5 1129.59,1003.95C1148.32,982.406 1164.52,961.996 1177.27,942.721ZM1031.46,940.702C1044.41,960.569 1061.08,981.652 1080.46,1003.95C1055.81,1029.5 1027.92,1056.65 998.195,1085.9C975.824,1056.28 956.954,1027.91 943.171,1001.12C969.864,974.627 999.622,953.594 1031.46,940.702ZM1065.78,930.24C1077.63,927.798 1089.7,926.516 1101.96,926.516C1116.04,926.516 1129.88,928.209 1143.42,931.409C1132.49,946.343 1119.56,961.749 1105.03,977.766C1090.12,961.331 1076.89,945.539 1065.78,930.24Z" style="fill:rgb(15,15,0);fill-opacity:0.04;"/>
                    <g transform="matrix(1,0,0,1,0,-12)">
                        <path d="M902.145,605.3L1099,920.737C1063.5,923.14 1026.29,932.621 995.089,952.248L902.145,605.3" style="fill:rgb(15,15,0);fill-opacity:0.04;"/>
                    </g>
                    <g transform="matrix(1,0,0,1,0,-12)">
                        <path d="M855.346,838.335L971.601,906.366L984.518,956.312C974.777,965.03 965.698,972.424 957.392,978.272L855.346,838.335Z" style="fill:rgb(15,15,0);fill-opacity:0.04;"/>
                    </g>
                    <g transform="matrix(-1,0,0,1,2204.03,-12)">
                        <path d="M902.145,605.3L1099,920.737C1063.5,923.14 1026.29,932.621 995.089,952.248L902.145,605.3" style="fill:rgb(15,15,0);fill-opacity:0.04;"/>
                    </g>
                    <g transform="matrix(-1,0,0,1,2204.03,-12)">
                        <path d="M855.346,838.335L971.601,906.366L984.518,956.312C974.777,965.03 965.698,972.424 957.392,978.272L855.346,838.335Z" style="fill:rgb(15,15,0);fill-opacity:0.04;"/>
                    </g>
                    <g transform="matrix(1,0,0,1,2,-2)">
                        <path d="M1129.2,524.357L1055.62,820.797L1099,894.381L1154.43,811.336L1129.2,524.357Z" style="fill:rgb(15,15,0);fill-opacity:0.04;"/>
                    </g>
                </g>
            </g>
        </g>
        <g transform="matrix(0.504776,0,0,0.504776,1346.31,230.39)">
            <g>
                <g>
                    <path d="M1070.26,1605.97C1081.55,1593.04 1093.17,1579.86 1105.03,1566.47C1116.67,1579.62 1128.1,1592.58 1139.21,1605.29C1127.01,1606.9 1114.58,1607.74 1101.96,1607.74C1091.24,1607.74 1080.67,1607.14 1070.26,1605.97ZM903.397,1526.61C927.28,1493.64 953.856,1460.17 981.705,1426.68C1011.99,1461.74 1043.12,1496.77 1073.44,1530.88C1054.55,1552.92 1036.25,1574.47 1018.98,1595.31C975.227,1581.85 935.801,1558.03 903.397,1526.61ZM1189.79,1593.76C1172.9,1573.4 1155.04,1552.38 1136.62,1530.88C1166.93,1496.77 1198.07,1461.74 1228.35,1426.68C1255.21,1458.97 1280.88,1491.26 1304.09,1523.09C1272.22,1555.06 1233.22,1579.54 1189.79,1593.76ZM1105.03,1494.16C1134.98,1459.4 1165.76,1423.77 1195.73,1388.07C1165.75,1353.07 1134.97,1318.27 1105.03,1284.27C1075.08,1318.27 1044.3,1353.07 1014.33,1388.07C1044.3,1423.77 1075.07,1459.4 1105.03,1494.16ZM814.964,1350.68C831.675,1328.44 849.093,1306.76 866.897,1285.65C891.885,1319.22 920.039,1354.03 949.657,1389.16C921.737,1422.57 895.151,1456.27 871.339,1489.98C841.892,1450.18 821.937,1402.56 814.964,1350.68ZM1335.68,1485.7C1312.65,1453.42 1287.14,1421.16 1260.4,1389.16C1290.02,1354.03 1318.17,1319.22 1343.16,1285.65C1359.09,1304.54 1374.72,1323.89 1389.81,1343.7C1383.95,1396.42 1364.71,1444.99 1335.68,1485.7ZM1219.33,1150.29C1194.34,1181.54 1166.18,1214.42 1136.57,1248.33C1166.52,1281.64 1197.26,1315.69 1227.17,1350.18C1256.12,1314.82 1283.7,1279.67 1308.33,1245.53C1278.68,1212.27 1248.55,1180.52 1219.33,1150.29ZM982.886,1350.18C1012.79,1315.69 1043.53,1281.64 1073.49,1248.33C1043.87,1214.42 1015.72,1181.54 990.727,1150.29C961.51,1180.52 931.378,1212.27 901.726,1245.53C926.351,1279.67 953.936,1314.82 982.886,1350.18ZM822.932,1222.45C828.871,1231.74 835.178,1241.19 841.812,1250.77C832.181,1262.1 822.597,1273.7 813.097,1285.57C814.58,1264.98 817.918,1243.77 822.932,1222.45ZM1382.58,1229.49C1386.07,1245.51 1388.61,1261.44 1390.1,1277.07C1382.85,1268.15 1375.56,1259.38 1368.24,1250.77C1373.21,1243.6 1377.99,1236.5 1382.58,1229.49ZM1105.03,1031.37C1080.2,1058.37 1052.26,1087.01 1022.77,1117.29C1047.71,1148.16 1075.68,1180.22 1105.03,1213.14C1134.38,1180.22 1162.35,1148.16 1187.29,1117.29C1157.8,1087.01 1129.86,1058.37 1105.03,1031.37ZM1295.48,1040.8C1323.27,1077.11 1346.21,1119.25 1362.71,1162.86C1353.69,1178.35 1343.66,1194.23 1332.81,1210.4C1302.93,1177.39 1273.07,1146.75 1244.35,1118.07C1264.98,1090.62 1282.45,1064.7 1295.48,1040.8ZM912.071,1036.12C925.319,1061.31 943.723,1088.81 965.704,1118.07C936.99,1146.75 907.126,1177.39 877.248,1210.4C864.897,1192 853.615,1173.98 843.671,1156.48C860.703,1113.26 884.025,1071.72 912.071,1036.12ZM1177.27,942.721C1208.89,956.429 1238.39,978.141 1264.77,1005.17C1251.19,1030.77 1233.11,1057.77 1211.86,1085.9C1182.13,1056.65 1154.24,1029.5 1129.59,1003.95C1148.32,982.406 1164.52,961.996 1177.27,942.721ZM1031.46,940.702C1044.41,960.569 1061.08,981.652 1080.46,1003.95C1055.81,1029.5 1027.92,1056.65 998.195,1085.9C975.824,1056.28 956.954,1027.91 943.171,1001.12C969.864,974.627 999.622,953.594 1031.46,940.702ZM1065.78,930.24C1077.63,927.798 1089.7,926.516 1101.96,926.516C1116.04,926.516 1129.88,928.209 1143.42,931.409C1132.49,946.343 1119.56,961.749 1105.03,977.766C1090.12,961.331 1076.89,945.539 1065.78,930.24Z" style="fill:rgb(15,15,0);fill-opacity:0.04;"/>
                    <g transform="matrix(1,0,0,1,0,-12)">
                        <path d="M902.145,605.3L1099,920.737C1063.5,923.14 1026.29,932.621 995.089,952.248L902.145,605.3" style="fill:rgb(15,15,0);fill-opacity:0.04;"/>
                    </g>
                    <g transform="matrix(1,0,0,1,0,-12)">
                        <path d="M855.346,838.335L971.601,906.366L984.518,956.312C974.777,965.03 965.698,972.424 957.392,978.272L855.346,838.335Z" style="fill:rgb(15,15,0);fill-opacity:0.04;"/>
                    </g>
                    <g transform="matrix(-1,0,0,1,2204.03,-12)">
                        <path d="M902.145,605.3L1099,920.737C1063.5,923.14 1026.29,932.621 995.089,952.248L902.145,605.3" style="fill:rgb(15,15,0);fill-opacity:0.04;"/>
                    </g>
                    <g transform="matrix(-1,0,0,1,2204.03,-12)">
                        <path d="M855.346,838.335L971.601,906.366L984.518,956.312C974.777,965.03 965.698,972.424 957.392,978.272L855.346,838.335Z" style="fill:rgb(15,15,0);fill-opacity:0.04;"/>
                    </g>
                    <g transform="matrix(1,0,0,1,2,-2)">
                        <path d="M1129.2,524.357L1055.62,820.797L1099,894.381L1154.43,811.336L1129.2,524.357Z" style="fill:rgb(15,15,0);fill-opacity:0.04;"/>
                    </g>
                </g>
            </g>
        </g>
        <g transform="matrix(0.504776,0,0,0.504776,1053.52,-263.673)">
            <g>
                <g>
                    <path d="M1070.26,1605.97C1081.55,1593.04 1093.17,1579.86 1105.03,1566.47C1116.67,1579.62 1128.1,1592.58 1139.21,1605.29C1127.01,1606.9 1114.58,1607.74 1101.96,1607.74C1091.24,1607.74 1080.67,1607.14 1070.26,1605.97ZM903.397,1526.61C927.28,1493.64 953.856,1460.17 981.705,1426.68C1011.99,1461.74 1043.12,1496.77 1073.44,1530.88C1054.55,1552.92 1036.25,1574.47 1018.98,1595.31C975.227,1581.85 935.801,1558.03 903.397,1526.61ZM1189.79,1593.76C1172.9,1573.4 1155.04,1552.38 1136.62,1530.88C1166.93,1496.77 1198.07,1461.74 1228.35,1426.68C1255.21,1458.97 1280.88,1491.26 1304.09,1523.09C1272.22,1555.06 1233.22,1579.54 1189.79,1593.76ZM1105.03,1494.16C1134.98,1459.4 1165.76,1423.77 1195.73,1388.07C1165.75,1353.07 1134.97,1318.27 1105.03,1284.27C1075.08,1318.27 1044.3,1353.07 1014.33,1388.07C1044.3,1423.77 1075.07,1459.4 1105.03,1494.16ZM814.964,1350.68C831.675,1328.44 849.093,1306.76 866.897,1285.65C891.885,1319.22 920.039,1354.03 949.657,1389.16C921.737,1422.57 895.151,1456.27 871.339,1489.98C841.892,1450.18 821.937,1402.56 814.964,1350.68ZM1335.68,1485.7C1312.65,1453.42 1287.14,1421.16 1260.4,1389.16C1290.02,1354.03 1318.17,1319.22 1343.16,1285.65C1359.09,1304.54 1374.72,1323.89 1389.81,1343.7C1383.95,1396.42 1364.71,1444.99 1335.68,1485.7ZM1219.33,1150.29C1194.34,1181.54 1166.18,1214.42 1136.57,1248.33C1166.52,1281.64 1197.26,1315.69 1227.17,1350.18C1256.12,1314.82 1283.7,1279.67 1308.33,1245.53C1278.68,1212.27 1248.55,1180.52 1219.33,1150.29ZM982.886,1350.18C1012.79,1315.69 1043.53,1281.64 1073.49,1248.33C1043.87,1214.42 1015.72,1181.54 990.727,1150.29C961.51,1180.52 931.378,1212.27 901.726,1245.53C926.351,1279.67 953.936,1314.82 982.886,1350.18ZM822.932,1222.45C828.871,1231.74 835.178,1241.19 841.812,1250.77C832.181,1262.1 822.597,1273.7 813.097,1285.57C814.58,1264.98 817.918,1243.77 822.932,1222.45ZM1382.58,1229.49C1386.07,1245.51 1388.61,1261.44 1390.1,1277.07C1382.85,1268.15 1375.56,1259.38 1368.24,1250.77C1373.21,1243.6 1377.99,1236.5 1382.58,1229.49ZM1105.03,1031.37C1080.2,1058.37 1052.26,1087.01 1022.77,1117.29C1047.71,1148.16 1075.68,1180.22 1105.03,1213.14C1134.38,1180.22 1162.35,1148.16 1187.29,1117.29C1157.8,1087.01 1129.86,1058.37 1105.03,1031.37ZM1295.48,1040.8C1323.27,1077.11 1346.21,1119.25 1362.71,1162.86C1353.69,1178.35 1343.66,1194.23 1332.81,1210.4C1302.93,1177.39 1273.07,1146.75 1244.35,1118.07C1264.98,1090.62 1282.45,1064.7 1295.48,1040.8ZM912.071,1036.12C925.319,1061.31 943.723,1088.81 965.704,1118.07C936.99,1146.75 907.126,1177.39 877.248,1210.4C864.897,1192 853.615,1173.98 843.671,1156.48C860.703,1113.26 884.025,1071.72 912.071,1036.12ZM1177.27,942.721C1208.89,956.429 1238.39,978.141 1264.77,1005.17C1251.19,1030.77 1233.11,1057.77 1211.86,1085.9C1182.13,1056.65 1154.24,1029.5 1129.59,1003.95C1148.32,982.406 1164.52,961.996 1177.27,942.721ZM1031.46,940.702C1044.41,960.569 1061.08,981.652 1080.46,1003.95C1055.81,1029.5 1027.92,1056.65 998.195,1085.9C975.824,1056.28 956.954,1027.91 943.171,1001.12C969.864,974.627 999.622,953.594 1031.46,940.702ZM1065.78,930.24C1077.63,927.798 1089.7,926.516 1101.96,926.516C1116.04,926.516 1129.88,928.209 1143.42,931.409C1132.49,946.343 1119.56,961.749 1105.03,977.766C1090.12,961.331 1076.89,945.539 1065.78,930.24Z" style="fill:rgb(15,15,0);fill-opacity:0.04;"/>
                    <path d="M1070.26,1605.97C1081.55,1593.04 1093.17,1579.86 1105.03,1566.47C1116.67,1579.62 1128.1,1592.58 1139.21,1605.29C1127.01,1606.9 1114.58,1607.74 1101.96,1607.74C1091.24,1607.74 1080.67,1607.14 1070.26,1605.97ZM903.397,1526.61C927.28,1493.64 953.856,1460.17 981.705,1426.68C1011.99,1461.74 1043.12,1496.77 1073.44,1530.88C1054.55,1552.92 1036.25,1574.47 1018.98,1595.31C975.227,1581.85 935.801,1558.03 903.397,1526.61ZM1189.79,1593.76C1172.9,1573.4 1155.04,1552.38 1136.62,1530.88C1166.93,1496.77 1198.07,1461.74 1228.35,1426.68C1255.21,1458.97 1280.88,1491.26 1304.09,1523.09C1272.22,1555.06 1233.22,1579.54 1189.79,1593.76ZM1105.03,1494.16C1134.98,1459.4 1165.76,1423.77 1195.73,1388.07C1165.75,1353.07 1134.97,1318.27 1105.03,1284.27C1075.08,1318.27 1044.3,1353.07 1014.33,1388.07C1044.3,1423.77 1075.07,1459.4 1105.03,1494.16ZM814.964,1350.68C831.675,1328.44 849.093,1306.76 866.897,1285.65C891.885,1319.22 920.039,1354.03 949.657,1389.16C921.737,1422.57 895.151,1456.27 871.339,1489.98C841.892,1450.18 821.937,1402.56 814.964,1350.68ZM1335.68,1485.7C1312.65,1453.42 1287.14,1421.16 1260.4,1389.16C1290.02,1354.03 1318.17,1319.22 1343.16,1285.65C1359.09,1304.54 1374.72,1323.89 1389.81,1343.7C1383.95,1396.42 1364.71,1444.99 1335.68,1485.7ZM1219.33,1150.29C1194.34,1181.54 1166.18,1214.42 1136.57,1248.33C1166.52,1281.64 1197.26,1315.69 1227.17,1350.18C1256.12,1314.82 1283.7,1279.67 1308.33,1245.53C1278.68,1212.27 1248.55,1180.52 1219.33,1150.29ZM982.886,1350.18C1012.79,1315.69 1043.53,1281.64 1073.49,1248.33C1043.87,1214.42 1015.72,1181.54 990.727,1150.29C961.51,1180.52 931.378,1212.27 901.726,1245.53C926.351,1279.67 953.936,1314.82 982.886,1350.18ZM822.932,1222.45C828.871,1231.74 835.178,1241.19 841.812,1250.77C832.181,1262.1 822.597,1273.7 813.097,1285.57C814.58,1264.98 817.918,1243.77 822.932,1222.45ZM1382.58,1229.49C1386.07,1245.51 1388.61,1261.44 1390.1,1277.07C1382.85,1268.15 1375.56,1259.38 1368.24,1250.77C1373.21,1243.6 1377.99,1236.5 1382.58,1229.49ZM1105.03,1031.37C1080.2,1058.37 1052.26,1087.01 1022.77,1117.29C1047.71,1148.16 1075.68,1180.22 1105.03,1213.14C1134.38,1180.22 1162.35,1148.16 1187.29,1117.29C1157.8,1087.01 1129.86,1058.37 1105.03,1031.37ZM1295.48,1040.8C1323.27,1077.11 1346.21,1119.25 1362.71,1162.86C1353.69,1178.35 1343.66,1194.23 1332.81,1210.4C1302.93,1177.39 1273.07,1146.75 1244.35,1118.07C1264.98,1090.62 1282.45,1064.7 1295.48,1040.8ZM912.071,1036.12C925.319,1061.31 943.723,1088.81 965.704,1118.07C936.99,1146.75 907.126,1177.39 877.248,1210.4C864.897,1192 853.615,1173.98 843.671,1156.48C860.703,1113.26 884.025,1071.72 912.071,1036.12ZM1177.27,942.721C1208.89,956.429 1238.39,978.141 1264.77,1005.17C1251.19,1030.77 1233.11,1057.77 1211.86,1085.9C1182.13,1056.65 1154.24,1029.5 1129.59,1003.95C1148.32,982.406 1164.52,961.996 1177.27,942.721ZM1031.46,940.702C1044.41,960.569 1061.08,981.652 1080.46,1003.95C1055.81,1029.5 1027.92,1056.65 998.195,1085.9C975.824,1056.28 956.954,1027.91 943.171,1001.12C969.864,974.627 999.622,953.594 1031.46,940.702ZM1065.78,930.24C1077.63,927.798 1089.7,926.516 1101.96,926.516C1116.04,926.516 1129.88,928.209 1143.42,931.409C1132.49,946.343 1119.56,961.749 1105.03,977.766C1090.12,961.331 1076.89,945.539 1065.78,930.24Z" style="fill:rgb(15,15,0);fill-opacity:0.04;"/>
                    <g transform="matrix(1,0,0,1,0,-12)">
                        <path d="M902.145,605.3L1099,920.737C1063.5,923.14 1026.29,932.621 995.089,952.248L902.145,605.3" style="fill:rgb(15,15,0);fill-opacity:0.04;"/>
                    </g>
                    <g transform="matrix(1,0,0,1,0,-12)">
                        <path d="M855.346,838.335L971.601,906.366L984.518,956.312C974.777,965.03 965.698,972.424 957.392,978.272L855.346,838.335Z" style="fill:rgb(15,15,0);fill-opacity:0.04;"/>
                    </g>
                    <g transform="matrix(-1,0,0,1,2204.03,-12)">
                        <path d="M902.145,605.3L1099,920.737C1063.5,923.14 1026.29,932.621 995.089,952.248L902.145,605.3" style="fill:rgb(15,15,0);fill-opacity:0.04;"/>
                    </g>
                    <g transform="matrix(-1,0,0,1,2204.03,-12)">
                        <path d="M855.346,838.335L971.601,906.366L984.518,956.312C974.777,965.03 965.698,972.424 957.392,978.272L855.346,838.335Z" style="fill:rgb(15,15,0);fill-opacity:0.04;"/>
                    </g>
                    <g transform="matrix(1,0,0,1,2,-2)">
                        <path d="M1129.2,524.357L1055.62,820.797L1099,894.381L1154.43,811.336L1129.2,524.357Z" style="fill:rgb(15,15,0);fill-opacity:0.04;"/>
                    </g>
                </g>
            </g>
        </g>
    </g>
    <g transform="matrix(1.25348,-0.723699,0.723699,1.25348,531.77,305.767)">
        <path d="M509.244,285.404L500.873,265.854C500.754,265.572 500.54,265.351 500.387,265.086C499.653,263.294 498.766,261.459 497.469,259.582C485.045,241.534 450.544,232.821 395.018,233.564L385.401,295.926C379.752,296.284 373.958,296.6 367.993,296.882L378.37,229.58L371.339,226.269L362.584,249.684C352.267,273.484 329.21,287.623 305.078,287.623C296.835,287.623 288.455,285.968 280.425,282.486L102.411,202.187C82.708,201.871 59.992,196.026 34.366,181.093C33.965,180.863 33.487,180.871 33.052,180.709C32.506,180.487 32.011,180.171 31.405,180.078C24.792,178.952 17.069,174.258 17.069,164.701C17.069,159.991 13.255,156.168 8.536,156.168C3.826,156.168 0.003,159.991 0.003,164.701C0.003,177.987 8.058,189.217 20.278,194.38C13.127,232.362 2.46,287.385 0.447,293.435C0.327,293.785 0.413,294.152 0.345,294.519C0.239,295.055 0,295.575 0,296.138L0,355.786C0,358.047 0.905,360.223 2.5,361.819C4.104,363.423 6.272,364.319 8.533,364.319C8.533,364.319 213.342,364.319 347.699,364.097C433.493,363.96 475.989,346.313 496.52,331.534C510.37,321.568 515.669,302.76 509.244,285.404ZM59.733,227.786C64.452,227.786 68.266,231.609 68.266,236.319C68.266,241.038 64.452,244.852 59.733,244.852C55.023,244.852 51.2,241.038 51.2,236.319C51.2,231.609 55.023,227.786 59.733,227.786ZM51.2,261.92C55.919,261.92 59.733,265.743 59.733,270.453C59.733,275.172 55.919,278.986 51.2,278.986C46.49,278.986 42.667,275.172 42.667,270.453C42.667,265.743 46.49,261.92 51.2,261.92ZM486.554,317.685C471.407,328.591 433.221,346.895 347.665,347.031C229.615,347.227 57.148,347.253 17.067,347.253L17.067,305.32C48.564,307.607 131.38,313.128 219.947,315.142L220.22,315.142C238.942,315.569 257.912,315.833 276.711,315.876L277.914,315.876C279.373,315.884 280.832,315.893 282.292,315.893C285.236,315.893 288.146,315.859 291.081,315.85C293.428,315.841 295.774,315.841 298.112,315.824C301.978,315.79 305.801,315.747 309.632,315.696C312.09,315.662 314.556,315.636 316.996,315.594C320.682,315.534 324.318,315.449 327.961,315.364C330.478,315.304 332.996,315.253 335.487,315.185C338.977,315.091 342.416,314.963 345.864,314.844C348.45,314.759 351.044,314.673 353.604,314.571C356.864,314.443 360.064,314.281 363.272,314.127C365.909,314.007 368.546,313.88 371.131,313.743C374.194,313.572 377.181,313.385 380.185,313.188C382.805,313.026 385.442,312.864 388.01,312.676C390.886,312.471 393.676,312.241 396.475,312.019C399.044,311.806 401.621,311.601 404.121,311.371C406.792,311.132 409.369,310.859 411.963,310.594C414.463,310.338 416.972,310.082 419.404,309.809C421.87,309.527 424.242,309.212 426.623,308.913C429.012,308.606 431.402,308.299 433.697,307.966C435.984,307.642 438.168,307.283 440.37,306.933C442.589,306.575 444.807,306.225 446.932,305.841C449.031,305.466 451.011,305.064 453.016,304.663C455.055,304.253 457.104,303.844 459.041,303.409C460.927,302.982 462.693,302.53 464.485,302.078C466.32,301.617 468.154,301.156 469.887,300.661C471.559,300.183 473.104,299.671 474.666,299.168C476.279,298.647 477.892,298.127 479.376,297.581C480.827,297.043 482.141,296.48 483.472,295.917C484.829,295.337 486.194,294.756 487.423,294.151C488.635,293.554 489.71,292.922 490.785,292.299C491.527,291.864 492.415,291.471 493.098,291.019L493.397,291.719C497.015,301.506 494.199,312.181 486.554,317.685Z" style="fill-opacity:0.28;fill-rule:nonzero;"/>
        <path d="M346.762,243.293L355.85,218.982L348.324,215.441L323.057,257.562C321.453,260.224 318.628,261.701 315.727,261.701C314.234,261.701 312.723,261.308 311.349,260.489C307.304,258.057 305.999,252.818 308.422,248.781L332.802,208.137L313.721,199.16L288.923,240.496C287.319,243.158 284.494,244.635 281.593,244.635C280.1,244.635 278.589,244.242 277.215,243.423C273.17,240.991 271.865,235.751 274.288,231.715L298.198,191.856L279.117,182.879L254.789,223.429C253.185,226.091 250.36,227.568 247.459,227.568C245.966,227.568 244.455,227.175 243.081,226.356C239.036,223.924 237.731,218.685 240.154,214.648L263.595,175.574L244.514,166.588L220.655,206.362C219.051,209.024 216.226,210.501 213.325,210.501C211.832,210.501 210.321,210.108 208.947,209.289C204.902,206.857 203.597,201.618 206.02,197.581L228.992,159.283L205.961,148.446C202.053,146.611 197.428,147.985 195.115,151.603C193.716,153.813 172.792,185.736 133.965,197.692L287.318,266.872C310.112,276.752 336.821,266.197 346.762,243.293Z" style="fill-opacity:0.28;fill-rule:nonzero;"/>
    </g>
    <g transform="matrix(1.25348,-0.723699,0.723699,1.25348,531.77,305.767)">
        <path d="M509.244,285.404L500.873,265.854C500.754,265.572 500.54,265.351 500.387,265.086C499.653,263.294 498.766,261.459 497.469,259.582C485.045,241.534 450.544,232.821 395.018,233.564L385.401,295.926C379.752,296.284 373.958,296.6 367.993,296.882L378.37,229.58L371.339,226.269L362.584,249.684C352.267,273.484 329.21,287.623 305.078,287.623C296.835,287.623 288.455,285.968 280.425,282.486L102.411,202.187C82.708,201.871 59.992,196.026 34.366,181.093C33.965,180.863 33.487,180.871 33.052,180.709C32.506,180.487 32.011,180.171 31.405,180.078C24.792,178.952 17.069,174.258 17.069,164.701C17.069,159.991 13.255,156.168 8.536,156.168C3.826,156.168 0.003,159.991 0.003,164.701C0.003,177.987 8.058,189.217 20.278,194.38C13.127,232.362 2.46,287.385 0.447,293.435C0.327,293.785 0.413,294.152 0.345,294.519C0.239,295.055 0,295.575 0,296.138L0,355.786C0,358.047 0.905,360.223 2.5,361.819C4.104,363.423 6.272,364.319 8.533,364.319C8.533,364.319 213.342,364.319 347.699,364.097C433.493,363.96 475.989,346.313 496.52,331.534C510.37,321.568 515.669,302.76 509.244,285.404ZM59.733,227.786C64.452,227.786 68.266,231.609 68.266,236.319C68.266,241.038 64.452,244.852 59.733,244.852C55.023,244.852 51.2,241.038 51.2,236.319C51.2,231.609 55.023,227.786 59.733,227.786ZM51.2,261.92C55.919,261.92 59.733,265.743 59.733,270.453C59.733,275.172 55.919,278.986 51.2,278.986C46.49,278.986 42.667,275.172 42.667,270.453C42.667,265.743 46.49,261.92 51.2,261.92ZM486.554,317.685C471.407,328.591 433.221,346.895 347.665,347.031C229.615,347.227 57.148,347.253 17.067,347.253L17.067,305.32C48.564,307.607 131.38,313.128 219.947,315.142L220.22,315.142C238.942,315.569 257.912,315.833 276.711,315.876L277.914,315.876C279.373,315.884 280.832,315.893 282.292,315.893C285.236,315.893 288.146,315.859 291.081,315.85C293.428,315.841 295.774,315.841 298.112,315.824C301.978,315.79 305.801,315.747 309.632,315.696C312.09,315.662 314.556,315.636 316.996,315.594C320.682,315.534 324.318,315.449 327.961,315.364C330.478,315.304 332.996,315.253 335.487,315.185C338.977,315.091 342.416,314.963 345.864,314.844C348.45,314.759 351.044,314.673 353.604,314.571C356.864,314.443 360.064,314.281 363.272,314.127C365.909,314.007 368.546,313.88 371.131,313.743C374.194,313.572 377.181,313.385 380.185,313.188C382.805,313.026 385.442,312.864 388.01,312.676C390.886,312.471 393.676,312.241 396.475,312.019C399.044,311.806 401.621,311.601 404.121,311.371C406.792,311.132 409.369,310.859 411.963,310.594C414.463,310.338 416.972,310.082 419.404,309.809C421.87,309.527 424.242,309.212 426.623,308.913C429.012,308.606 431.402,308.299 433.697,307.966C435.984,307.642 438.168,307.283 440.37,306.933C442.589,306.575 444.807,306.225 446.932,305.841C449.031,305.466 451.011,305.064 453.016,304.663C455.055,304.253 457.104,303.844 459.041,303.409C460.927,302.982 462.693,302.53 464.485,302.078C466.32,301.617 468.154,301.156 469.887,300.661C471.559,300.183 473.104,299.671 474.666,299.168C476.279,298.647 477.892,298.127 479.376,297.581C480.827,297.043 482.141,296.48 483.472,295.917C484.829,295.337 486.194,294.756 487.423,294.151C488.635,293.554 489.71,292.922 490.785,292.299C491.527,291.864 492.415,291.471 493.098,291.019L493.397,291.719C497.015,301.506 494.199,312.181 486.554,317.685Z" style="fill-opacity:0.16;fill-rule:nonzero;"/>
        <path d="M346.762,243.293L355.85,218.982L348.324,215.441L323.057,257.562C321.453,260.224 318.628,261.701 315.727,261.701C314.234,261.701 312.723,261.308 311.349,260.489C307.304,258.057 305.999,252.818 308.422,248.781L332.802,208.137L313.721,199.16L288.923,240.496C287.319,243.158 284.494,244.635 281.593,244.635C280.1,244.635 278.589,244.242 277.215,243.423C273.17,240.991 271.865,235.751 274.288,231.715L298.198,191.856L279.117,182.879L254.789,223.429C253.185,226.091 250.36,227.568 247.459,227.568C245.966,227.568 244.455,227.175 243.081,226.356C239.036,223.924 237.731,218.685 240.154,214.648L263.595,175.574L244.514,166.588L220.655,206.362C219.051,209.024 216.226,210.501 213.325,210.501C211.832,210.501 210.321,210.108 208.947,209.289C204.902,206.857 203.597,201.618 206.02,197.581L228.992,159.283L205.961,148.446C202.053,146.611 197.428,147.985 195.115,151.603C193.716,153.813 172.792,185.736 133.965,197.692L287.318,266.872C310.112,276.752 336.821,266.197 346.762,243.293Z" style="fill-opacity:0.16;fill-rule:nonzero;"/>
    </g>
    <defs>
        <linearGradient id="_Linear1" x1="0" y1="0" x2="1" y2="0" gradientUnits="userSpaceOnUse" gradientTransform="matrix(2048,-1024,1024,2048,0,1024)"><stop offset="0" style="stop-color:rgb(229,255,0);stop-opacity:1"/><stop offset="1" style="stop-color:rgb(111,255,92);stop-opacity:1"/></linearGradient>
    </defs>
</svg>
