<svg xmlns="http://www.w3.org/2000/svg" width="54.515" height="46.128" viewBox="0 0 54.515 46.128"><defs><style>.a{fill:#fff;}</style></defs><path class="a" d="M57.37,18.387H20.677V13.145A3.149,3.149,0,0,0,17.532,10H9.145a3.145,3.145,0,0,0,0,6.29H18.58v8.387H46.886v-2.1H20.677v-2.1H57.37a1.049,1.049,0,0,1,1.048,1.048v4.193a3.161,3.161,0,0,1-1.257,2.516L43.181,38.725a3.159,3.159,0,0,1-1.886.629H21.725A3.149,3.149,0,0,0,18.58,42.5V45.75a5.242,5.242,0,1,0,6.184,6.184h8.6a5.242,5.242,0,1,0,0-2.1h-8.6a5.258,5.258,0,0,0-4.088-4.088V42.5a1.049,1.049,0,0,1,1.048-1.048H41.3A5.266,5.266,0,0,0,44.439,40.4l13.98-10.484a5.269,5.269,0,0,0,2.1-4.193V21.532A3.149,3.149,0,0,0,57.37,18.387ZM9.145,14.193a1.048,1.048,0,0,1,0-2.1h8.387a1.049,1.049,0,0,1,1.048,1.048v1.048ZM38.5,47.741a3.145,3.145,0,1,1-3.145,3.145A3.149,3.149,0,0,1,38.5,47.741ZM22.774,50.886a3.145,3.145,0,1,1-3.145-3.145A3.149,3.149,0,0,1,22.774,50.886Z" transform="translate(-6 -10)"/><path class="a" d="M18,26H32.585v1.326H18Z" transform="translate(-2.028 -8.933)"/><path class="a" d="M18,30H28.607v1.326H18Z" transform="translate(-3.364 -8.666)"/><path class="a" d="M18,34h6.63v1.326H18Z" transform="translate(-4.319 -8.399)"/></svg>